<?xml version="1.0" encoding="UTF-8" standalone="no"?>
<svg
   width="256"
   height="256"
   viewBox="0 0 67.733331 67.733331"
   version="1.1"
   id="svg8"
   inkscape:version="1.1 (c4e8f9ed74, 2021-05-24)"
   sodipodi:docname="logo.svg"
   inkscape:export-filename="/home/katsuoryuu/Work/Asurion/AsurionTelemetrySystem/telemetry-data-layer/source/messenger/assets/logo.png"
   inkscape:export-xdpi="96"
   inkscape:export-ydpi="96"
   xmlns:inkscape="http://www.inkscape.org/namespaces/inkscape"
   xmlns:sodipodi="http://sodipodi.sourceforge.net/DTD/sodipodi-0.dtd"
   xmlns="http://www.w3.org/2000/svg"
   xmlns:svg="http://www.w3.org/2000/svg"
   xmlns:rdf="http://www.w3.org/1999/02/22-rdf-syntax-ns#"
   xmlns:cc="http://creativecommons.org/ns#"
   xmlns:dc="http://purl.org/dc/elements/1.1/">
  <defs
     id="defs2" />
  <sodipodi:namedview
     id="base"
     pagecolor="#bfbac7"
     bordercolor="#666666"
     borderopacity="1.0"
     inkscape:pageopacity="0"
     inkscape:pageshadow="2"
     inkscape:zoom="1.4"
     inkscape:cx="68.214286"
     inkscape:cy="-2.1428571"
     inkscape:document-units="mm"
     inkscape:current-layer="layer1"
     inkscape:document-rotation="0"
     showgrid="false"
     inkscape:window-width="1920"
     inkscape:window-height="1043"
     inkscape:window-x="2560"
     inkscape:window-y="571"
     inkscape:window-maximized="1"
     inkscape:lockguides="true"
     units="px"
     inkscape:pagecheckerboard="0" />
  <metadata
     id="metadata5">
    <rdf:RDF>
      <cc:Work
         rdf:about="">
        <dc:format>image/svg+xml</dc:format>
        <dc:type
           rdf:resource="http://purl.org/dc/dcmitype/StillImage" />
      </cc:Work>
    </rdf:RDF>
  </metadata>
  <g
     inkscape:label="Layer 1"
     inkscape:groupmode="layer"
     id="layer1"
     style="display:inline">
    <path
       style="fill:#000000;stroke-width:1"
       id="path1099"
       d="" />
    <g
       id="g15853"
       transform="translate(-63.253491,-4.8198776)">
      <path
         style="fill:#020202;stroke:#ffffff;stroke-width:3;stroke-miterlimit:4;stroke-dasharray:none;stroke-opacity:1"
         d="m 97.215175,9.2953648 c -0.69971,0.1835887 -1.234196,1.5475962 -1.584602,2.1282192 -0.160813,0.26645 -0.331753,0.68782 -0.67193,0.744925 -0.828278,0.139029 -1.736488,-1.285778 -2.247907,-1.848059 -0.337317,-0.3708249 -0.802855,-0.690262 -1.312068,-0.3966985 -0.620482,0.3576865 -0.866639,1.7606565 -1.105876,2.4024255 -0.120345,0.322806 -0.187288,0.724364 -0.549327,0.844439 -0.794532,0.263527 -1.872428,-0.909085 -2.506951,-1.360466 -0.384403,-0.273446 -0.795835,-0.517568 -1.2534,-0.235864 -0.671378,0.413318 -0.621836,1.948618 -0.739975,2.657363 -0.05586,0.335112 -0.04659,0.736766 -0.364346,0.935087 -0.704324,0.439612 -2.029981,-0.500238 -2.706824,-0.822012 -0.413087,-0.196365 -0.897679,-0.346295 -1.294468,-0.02336 -0.360536,0.293493 -0.29224,0.708235 -0.26451,1.113749 0.04528,0.660949 0.324934,2.224839 -0.197016,2.693184 -0.341332,0.30623 -0.646557,0.175305 -1.052072,0.08223 -0.736315,-0.168985 -2.346741,-0.900635 -2.938741,-0.21281 -0.533231,0.61948 0.09999,2.052494 0.274739,2.752656 0.07698,0.308335 0.25734,0.715854 0.06142,1.002879 -0.487799,0.714754 -2.040303,0.382849 -2.812976,0.349052 -0.480984,-0.02106 -0.989742,-0.0725 -1.232693,0.453453 -0.344493,0.745843 0.558653,1.983197 0.852801,2.657433 0.14958,0.342835 0.372065,0.631764 0.191105,1.002881 -0.348253,0.71435 -1.997989,0.669422 -2.719559,0.789917 -0.501274,0.08368 -0.997475,0.224395 -1.06766,0.814691 -0.0901,0.757626 0.94713,1.728414 1.361476,2.306623 0.295555,0.412436 0.56907,0.689482 0.317771,1.200701 -0.137343,0.279401 -0.543141,0.351258 -0.812175,0.451546 -0.641679,0.239237 -2.113386,0.499284 -2.428343,1.155869 -0.454973,0.948475 1.129579,1.95988 1.726329,2.478268 0.186505,0.162016 0.494143,0.37924 0.557163,0.630612 0.136456,0.544312 -0.312876,0.803057 -0.707595,1.042845 -0.676251,0.41078 -2.239414,0.985631 -2.204133,1.915652 0.03216,0.846983 1.574691,1.424491 2.204132,1.821182 0.40568,0.255633 0.728441,0.408472 0.715872,0.93674 -0.0083,0.328292 -0.392189,0.569434 -0.615584,0.766501 -0.585386,0.516283 -1.947738,1.38924 -1.728303,2.292283 0.100737,0.41444 0.464537,0.557551 0.825713,0.686573 0.587929,0.210003 1.171494,0.435752 1.755037,0.657688 0.44154,0.167882 0.85805,0.33451 0.843484,0.897879 -0.0059,0.228557 -0.286155,0.488352 -0.413306,0.666215 -0.449948,0.629306 -1.794729,1.875184 -1.282353,2.707574 0.412467,0.670075 1.949381,0.621988 2.657367,0.739977 0.466737,0.07777 0.825666,0.08585 1.039035,0.563969 0.15198,0.340528 -0.08064,0.643699 -0.215474,0.952738 -0.312249,0.715703 -1.375936,2.167574 -0.696753,2.891853 0.30979,0.330299 0.727897,0.248866 1.12679,0.221538 0.730095,-0.04999 2.241486,-0.338572 2.725374,0.296451 0.230814,0.302871 0.07276,0.666213 -0.01124,1.002831 -0.187588,0.751408 -0.901237,2.351754 -0.154643,2.936935 0.606191,0.474864 2.084688,-0.168485 2.755766,-0.335966 0.37633,-0.09377 0.724431,-0.243199 1.052773,0.02908 0.579315,0.479876 0.294446,2.035345 0.246459,2.735355 -0.03209,0.469347 -0.08103,0.94371 0.406417,1.207467 0.750805,0.406167 2.022057,-0.528517 2.707024,-0.827375 0.382299,-0.16698 0.644852,-0.379591 1.052974,-0.166478 0.387916,0.203084 0.390372,0.54707 0.45536,0.939698 0.121699,0.734611 0.06824,2.484637 0.898581,2.777478 0.808871,0.284818 1.906022,-0.875014 2.507199,-1.317284 0.364298,-0.268269 0.591549,-0.51849 1.053024,-0.371064 0.386961,0.124356 0.449943,0.47035 0.580468,0.816344 0.254731,0.675438 0.553089,2.392871 1.37515,2.540796 0.875464,0.157954 1.732676,-1.15983 2.235219,-1.738492 0.30618,-0.352514 0.52927,-0.653879 1.024143,-0.599723 0.383402,0.04211 0.534935,0.459821 0.71801,0.750156 0.428332,0.679951 0.98117,2.2289 1.939622,2.151679 0.815443,-0.06619 1.383676,-1.587058 1.771036,-2.201825 0.158005,-0.250719 0.311446,-0.639837 0.636078,-0.694995 0.516587,-0.08724 0.757877,0.230663 1.074087,0.594708 0.50715,0.583676 1.38994,1.946089 2.28536,1.728464 0.7809,-0.190046 1.07434,-1.866361 1.32501,-2.530768 0.11844,-0.313902 0.18197,-0.676443 0.53057,-0.800299 0.48981,-0.173499 0.70999,0.06869 1.10292,0.349003 0.60789,0.433243 1.64638,1.57051 2.45706,1.338343 0.49642,-0.141907 0.58999,-0.592703 0.66425,-1.03748 0.1209,-0.72408 0.0718,-2.368804 0.78992,-2.719812 0.37944,-0.185031 0.65308,0.03861 1.00288,0.191551 0.70593,0.307882 2.05215,1.301738 2.8034,0.767705 0.39338,-0.279804 0.35417,-0.726087 0.31406,-1.147797 -0.0714,-0.750155 -0.37995,-2.498677 0.44277,-2.873753 0.23798,-0.108813 0.61261,0.04965 0.85245,0.109309 0.6812,0.169989 2.21084,0.836906 2.80305,0.29585 0.67243,-0.614264 -0.016,-2.151581 -0.20208,-2.896819 -0.10331,-0.414392 -0.2432,-0.75181 0.0712,-1.102217 0.46082,-0.513625 2.04286,-0.254933 2.69323,-0.193004 0.42171,0.04012 0.86799,0.07933 1.1478,-0.314052 0.53303,-0.749703 -0.47537,-2.147819 -0.78977,-2.853546 -0.18453,-0.41439 -0.35452,-0.677847 -0.0898,-1.102215 0.19857,-0.317763 0.60022,-0.308486 0.93518,-0.364347 0.71155,-0.11854 2.31415,-0.06894 2.68522,-0.78997 0.22865,-0.445027 -0.006,-0.841265 -0.26376,-1.203405 -0.44378,-0.623591 -1.64422,-1.721695 -1.36643,-2.507 0.12687,-0.356975 0.47988,-0.409727 0.8003,-0.530525 0.66742,-0.251673 2.34022,-0.540801 2.53077,-1.325005 0.21763,-0.896725 -1.14729,-1.779761 -1.72846,-2.292284 -0.36254,-0.319919 -0.68246,-0.545516 -0.59471,-1.067166 0.0552,-0.324631 0.44427,-0.478071 0.695,-0.636075 0.59771,-0.376732 2.09501,-0.948574 2.1968,-1.720892 0.13289,-1.00574 -1.4983,-1.581342 -2.1968,-2.021757 -0.39313,-0.247862 -0.69701,-0.384104 -0.71355,-0.886598 -0.0125,-0.377784 0.40767,-0.641041 0.6634,-0.866789 0.55409,-0.488904 1.76407,-1.26754 1.70038,-2.091708 -0.0406,-0.524404 -0.46684,-0.694244 -0.89808,-0.854955 -0.65337,-0.243649 -2.27403,-0.531877 -2.48563,-1.251043 -0.12586,-0.426927 0.14692,-0.668119 0.38661,-1.002931 0.42672,-0.59541 1.52437,-1.616643 1.34386,-2.406912 -0.2071,-0.907406 -2.00576,-0.891009 -2.75492,-0.996362 -0.33596,-0.04719 -0.73711,-0.04133 -0.93518,-0.358479 -0.27579,-0.442021 -0.0757,-0.722828 0.11181,-1.152361 0.29284,-0.671478 1.15983,-1.858739 0.87401,-2.607438 -0.2111,-0.551234 -0.71405,-0.5395 -1.20395,-0.505955 -0.60925,0.04166 -1.24558,0.0546 -1.85533,0.0546 -0.24972,0 -0.54106,0.04768 -0.75016,-0.116226 -0.45931,-0.35993 -0.33144,-0.74614 -0.20909,-1.237651 0.18102,-0.724081 0.85144,-2.230104 0.24671,-2.848731 -0.59571,-0.60915 -2.13689,0.07858 -2.84768,0.247058 -0.23834,0.05647 -0.61848,0.216774 -0.85245,0.110113 -0.8227,-0.374867 -0.51416,-2.123691 -0.44276,-2.873845 0.0422,-0.443624 0.0733,-0.90886 -0.36154,-1.179238 -0.75251,-0.467924 -2.06041,0.495875 -2.75591,0.799347 -0.28472,0.124256 -0.58348,0.363844 -0.9026,0.237681 -0.51217,-0.20248 -0.53919,-0.570237 -0.60824,-1.061247 -0.0982,-0.698181 -0.0927,-2.255262 -0.74584,-2.657362 -0.82673,-0.508941 -2.07953,0.821179 -2.70758,1.274611 -0.18273,0.131923 -0.4355,0.406713 -0.67314,0.416476 -0.55268,0.0227 -0.72879,-0.41244 -0.89095,-0.838909 -0.25764,-0.677441 -0.54482,-2.38648 -1.34426,-2.5807525 -0.90235,-0.2192747 -1.77746,1.1445565 -2.29229,1.7283035 -0.18347,0.208013 -0.4181,0.579063 -0.71635,0.61465 -0.545772,0.06512 -0.732308,-0.310908 -0.98689,-0.714938 C 98.894589,10.771401 98.2717,9.0181474 97.215166,9.2953601 m -0.100288,5.2521919 c 2.29785,-0.331252 2.714346,3.197384 0.401152,3.472825 -2.161106,0.257338 -2.549975,-3.163035 -0.401152,-3.472825 m -3.760802,2.923747 c 0.343085,0.04147 0.723979,0.58483 0.950781,0.822012 0.735161,0.768857 1.747067,2.404054 2.910309,2.4551 0.660447,0.02893 1.042395,-0.32388 1.504319,-0.741681 0.596062,-0.539097 1.18666,-1.094944 1.755045,-1.663277 0.26481,-0.264758 0.66481,-0.812683 1.05302,-0.882183 0.35557,-0.06363 0.85927,0.150584 1.20346,0.236681 0.98653,0.246608 1.96459,0.545366 2.90835,0.92651 3.36908,1.360658 6.42405,3.599689 8.69497,6.438291 0.6607,0.825872 1.54604,1.805887 1.92212,2.808064 0.14693,0.391426 -0.36294,1.14559 -0.52656,1.504322 -0.43951,0.963316 -0.86975,1.934856 -1.28629,2.908353 -0.26702,0.623942 -0.48936,1.218749 -0.1053,1.855329 0.29725,0.492764 0.77963,0.692438 1.27972,0.917936 0.71696,0.323179 1.43532,0.644249 2.15619,0.958653 0.30488,0.133032 1.12172,0.346345 1.27416,0.650169 0.30839,0.613861 0.0501,1.572213 0.14492,2.236925 0.16949,1.188863 -0.006,2.379181 -0.20308,3.560224 -0.49292,2.951527 -1.64794,5.787672 -3.30535,8.273763 -0.51793,0.776932 -1.12077,1.442543 -1.71758,2.156193 -0.2618,0.313049 -0.59155,0.822313 -0.95675,1.014062 -0.29515,0.154947 -0.94205,-0.114073 -1.2536,-0.182875 -1.01276,-0.223692 -2.70216,-0.934032 -3.66051,-0.355872 -1.1146,0.672432 -1.17703,2.821554 -1.41401,3.987503 -0.0636,0.312746 -0.0797,0.921947 -0.28778,1.168405 -0.14893,0.176408 -0.49678,0.252576 -0.70512,0.335915 -0.62801,0.251222 -1.26022,0.467342 -1.90548,0.668921 -2.84031,0.886546 -5.882493,1.093139 -8.825346,0.776732 -1.725054,-0.185032 -3.439478,-0.609751 -5.064545,-1.210979 -0.399848,-0.147773 -1.367779,-0.357927 -1.582896,-0.746796 -0.170692,-0.308486 -0.192354,-0.79779 -0.262455,-1.14263 -0.15645,-0.769811 -0.32077,-1.540373 -0.493868,-2.306624 -0.132531,-0.586535 -0.255234,-1.144739 -0.769711,-1.523727 -0.977508,-0.720118 -2.643241,0.01438 -3.710657,0.248865 -0.324985,0.07135 -0.940452,0.324681 -1.253401,0.170088 -0.33115,-0.163569 -0.621083,-0.624393 -0.859167,-0.900988 -0.649915,-0.754818 -1.246329,-1.527888 -1.798666,-2.356769 -2.06759,-3.102862 -3.198738,-6.765783 -3.361605,-10.4801 -0.04694,-1.069873 -0.256838,-2.46508 0.07382,-3.503413 0.108209,-0.339876 0.932628,-0.529069 1.231889,-0.671328 1.035926,-0.492614 3.001019,-0.906504 3.424835,-2.093261 0.485446,-1.359255 -0.836402,-2.86859 -1.491733,-3.961379 -0.266766,-0.444827 -0.659243,-1.054378 -0.582324,-1.604608 0.05466,-0.391173 0.42462,-0.831188 0.638285,-1.153312 0.543109,-0.818651 1.111692,-1.609624 1.750628,-2.356769 2.435845,-2.84828 5.591911,-5.013851 9.097177,-6.320653 0.814089,-0.303522 1.656959,-0.567531 2.507202,-0.749653 0.271631,-0.05817 0.623791,-0.203836 0.902592,-0.170139 m -17.39998,13.073497 c 2.184425,-0.364798 2.86528,3.021328 0.651872,3.420275 -2.13584,0.385006 -2.813037,-3.059388 -0.651872,-3.420275 m 42.271406,0.04829 c 2.23944,-0.290885 2.60448,3.21669 0.35101,3.486364 -2.22263,0.265964 -2.58833,-3.19578 -0.35101,-3.486364 m -34.198218,24.7717 c 2.333701,-0.337169 2.725026,3.205256 0.401152,3.480346 -2.137891,0.252876 -2.526758,-3.173213 -0.401152,-3.480346 m 26.074888,0.100335 c 2.2116,-0.326638 2.89246,3.0988 0.65187,3.429749 -2.19329,0.323982 -2.88057,-3.100605 -0.65187,-3.429749 z"
         id="path1307-3"
         sodipodi:nodetypes="cccccccccscccccccccccccccsscsssccccccccscsccccccccccccccccccccccccccccscccscccccccccccccccccccccccsccccccccccccscccccsccssssscscscccscccccccccscccccccsccsccscsccccccccccccccccccccccccccccccccccc" />
      <path
         style="fill:#020202;stroke:none;stroke-width:1;stroke-miterlimit:4;stroke-dasharray:none"
         d="m 97.215175,9.2953648 c -0.69971,0.1835887 -1.234196,1.5475962 -1.584602,2.1282192 -0.160813,0.26645 -0.331753,0.68782 -0.67193,0.744925 -0.828278,0.139029 -1.736488,-1.285778 -2.247907,-1.848059 -0.337317,-0.3708249 -0.802855,-0.690262 -1.312068,-0.3966985 -0.620482,0.3576865 -0.866639,1.7606565 -1.105876,2.4024255 -0.120345,0.322806 -0.187288,0.724364 -0.549327,0.844439 -0.794532,0.263527 -1.872428,-0.909085 -2.506951,-1.360466 -0.384403,-0.273446 -0.795835,-0.517568 -1.2534,-0.235864 -0.671378,0.413318 -0.621836,1.948618 -0.739975,2.657363 -0.05586,0.335112 -0.04659,0.736766 -0.364346,0.935087 -0.704324,0.439612 -2.029981,-0.500238 -2.706824,-0.822012 -0.413087,-0.196365 -0.897679,-0.346295 -1.294468,-0.02336 -0.360536,0.293493 -0.29224,0.708235 -0.26451,1.113749 0.04528,0.660949 0.324934,2.224839 -0.197016,2.693184 -0.341332,0.30623 -0.646557,0.175305 -1.052072,0.08223 -0.736315,-0.168985 -2.346741,-0.900635 -2.938741,-0.21281 -0.533231,0.61948 0.09999,2.052494 0.274739,2.752656 0.07698,0.308335 0.25734,0.715854 0.06142,1.002879 -0.487799,0.714754 -2.040303,0.382849 -2.812976,0.349052 -0.480984,-0.02106 -0.989742,-0.0725 -1.232693,0.453453 -0.344493,0.745843 0.558653,1.983197 0.852801,2.657433 0.14958,0.342835 0.372065,0.631764 0.191105,1.002881 -0.348253,0.71435 -1.997989,0.669422 -2.719559,0.789917 -0.501274,0.08368 -0.997475,0.224395 -1.06766,0.814691 -0.0901,0.757626 0.94713,1.728414 1.361476,2.306623 0.295555,0.412436 0.56907,0.689482 0.317771,1.200701 -0.137343,0.279401 -0.543141,0.351258 -0.812175,0.451546 -0.641679,0.239237 -2.113386,0.499284 -2.428343,1.155869 -0.454973,0.948475 1.129579,1.95988 1.726329,2.478268 0.186505,0.162016 0.494143,0.37924 0.557163,0.630612 0.136456,0.544312 -0.312876,0.803057 -0.707595,1.042845 -0.676251,0.41078 -2.239414,0.985631 -2.204133,1.915652 0.03216,0.846983 1.574691,1.424491 2.204132,1.821182 0.40568,0.255633 0.728441,0.408472 0.715872,0.93674 -0.0083,0.328292 -0.392189,0.569434 -0.615584,0.766501 -0.585386,0.516283 -1.947738,1.38924 -1.728303,2.292283 0.100737,0.41444 0.464537,0.557551 0.825713,0.686573 0.587929,0.210003 1.171494,0.435752 1.755037,0.657688 0.44154,0.167882 0.85805,0.33451 0.843484,0.897879 -0.0059,0.228557 -0.286155,0.488352 -0.413306,0.666215 -0.449948,0.629306 -1.794729,1.875184 -1.282353,2.707574 0.412467,0.670075 1.949381,0.621988 2.657367,0.739977 0.466737,0.07777 0.825666,0.08585 1.039035,0.563969 0.15198,0.340528 -0.08064,0.643699 -0.215474,0.952738 -0.312249,0.715703 -1.375936,2.167574 -0.696753,2.891853 0.30979,0.330299 0.727897,0.248866 1.12679,0.221538 0.730095,-0.04999 2.241486,-0.338572 2.725374,0.296451 0.230814,0.302871 0.07276,0.666213 -0.01124,1.002831 -0.187588,0.751408 -0.901237,2.351754 -0.154643,2.936935 0.606191,0.474864 2.084688,-0.168485 2.755766,-0.335966 0.37633,-0.09377 0.724431,-0.243199 1.052773,0.02908 0.579315,0.479876 0.294446,2.035345 0.246459,2.735355 -0.03209,0.469347 -0.08103,0.94371 0.406417,1.207467 0.750805,0.406167 2.022057,-0.528517 2.707024,-0.827375 0.382299,-0.16698 0.644852,-0.379591 1.052974,-0.166478 0.387916,0.203084 0.390372,0.54707 0.45536,0.939698 0.121699,0.734611 0.06824,2.484637 0.898581,2.777478 0.808871,0.284818 1.906022,-0.875014 2.507199,-1.317284 0.364298,-0.268269 0.591549,-0.51849 1.053024,-0.371064 0.386961,0.124356 0.449943,0.47035 0.580468,0.816344 0.254731,0.675438 0.553089,2.392871 1.37515,2.540796 0.875464,0.157954 1.732676,-1.15983 2.235219,-1.738492 0.30618,-0.352514 0.52927,-0.653879 1.024143,-0.599723 0.383402,0.04211 0.534935,0.459821 0.71801,0.750156 0.428332,0.679951 0.98117,2.2289 1.939622,2.151679 0.815443,-0.06619 1.383676,-1.587058 1.771036,-2.201825 0.158005,-0.250719 0.311446,-0.639837 0.636078,-0.694995 0.516587,-0.08724 0.757877,0.230663 1.074087,0.594708 0.50715,0.583676 1.38994,1.946089 2.28536,1.728464 0.7809,-0.190046 1.07434,-1.866361 1.32501,-2.530768 0.11844,-0.313902 0.18197,-0.676443 0.53057,-0.800299 0.48981,-0.173499 0.70999,0.06869 1.10292,0.349003 0.60789,0.433243 1.64638,1.57051 2.45706,1.338343 0.49642,-0.141907 0.58999,-0.592703 0.66425,-1.03748 0.1209,-0.72408 0.0718,-2.368804 0.78992,-2.719812 0.37944,-0.185031 0.65308,0.03861 1.00288,0.191551 0.70593,0.307882 2.05215,1.301738 2.8034,0.767705 0.39338,-0.279804 0.35417,-0.726087 0.31406,-1.147797 -0.0714,-0.750155 -0.37995,-2.498677 0.44277,-2.873753 0.23798,-0.108813 0.61261,0.04965 0.85245,0.109309 0.6812,0.169989 2.21084,0.836906 2.80305,0.29585 0.67243,-0.614264 -0.016,-2.151581 -0.20208,-2.896819 -0.10331,-0.414392 -0.2432,-0.75181 0.0712,-1.102217 0.46082,-0.513625 2.04286,-0.254933 2.69323,-0.193004 0.42171,0.04012 0.86799,0.07933 1.1478,-0.314052 0.53303,-0.749703 -0.47537,-2.147819 -0.78977,-2.853546 -0.18453,-0.41439 -0.35452,-0.677847 -0.0898,-1.102215 0.19857,-0.317763 0.60022,-0.308486 0.93518,-0.364347 0.71155,-0.11854 2.31415,-0.06894 2.68522,-0.78997 0.22865,-0.445027 -0.006,-0.841265 -0.26376,-1.203405 -0.44378,-0.623591 -1.64422,-1.721695 -1.36643,-2.507 0.12687,-0.356975 0.47988,-0.409727 0.8003,-0.530525 0.66742,-0.251673 2.34022,-0.540801 2.53077,-1.325005 0.21763,-0.896725 -1.14729,-1.779761 -1.72846,-2.292284 -0.36254,-0.319919 -0.68246,-0.545516 -0.59471,-1.067166 0.0552,-0.324631 0.44427,-0.478071 0.695,-0.636075 0.59771,-0.376732 2.09501,-0.948574 2.1968,-1.720892 0.13289,-1.00574 -1.4983,-1.581342 -2.1968,-2.021757 -0.39313,-0.247862 -0.69701,-0.384104 -0.71355,-0.886598 -0.0125,-0.377784 0.40767,-0.641041 0.6634,-0.866789 0.55409,-0.488904 1.76407,-1.26754 1.70038,-2.091708 -0.0406,-0.524404 -0.46684,-0.694244 -0.89808,-0.854955 -0.65337,-0.243649 -2.27403,-0.531877 -2.48563,-1.251043 -0.12586,-0.426927 0.14692,-0.668119 0.38661,-1.002931 0.42672,-0.59541 1.52437,-1.616643 1.34386,-2.406912 -0.2071,-0.907406 -2.00576,-0.891009 -2.75492,-0.996362 -0.33596,-0.04719 -0.73711,-0.04133 -0.93518,-0.358479 -0.27579,-0.442021 -0.0757,-0.722828 0.11181,-1.152361 0.29284,-0.671478 1.15983,-1.858739 0.87401,-2.607438 -0.2111,-0.551234 -0.71405,-0.5395 -1.20395,-0.505955 -0.60925,0.04166 -1.24558,0.0546 -1.85533,0.0546 -0.24972,0 -0.54106,0.04768 -0.75016,-0.116226 -0.45931,-0.35993 -0.33144,-0.74614 -0.20909,-1.237651 0.18102,-0.724081 0.85144,-2.230104 0.24671,-2.848731 -0.59571,-0.60915 -2.13689,0.07858 -2.84768,0.247058 -0.23834,0.05647 -0.61848,0.216774 -0.85245,0.110113 -0.8227,-0.374867 -0.51416,-2.123691 -0.44276,-2.873845 0.0422,-0.443624 0.0733,-0.90886 -0.36154,-1.179238 -0.75251,-0.467924 -2.06041,0.495875 -2.75591,0.799347 -0.28472,0.124256 -0.58348,0.363844 -0.9026,0.237681 -0.51217,-0.20248 -0.53919,-0.570237 -0.60824,-1.061247 -0.0982,-0.698181 -0.0927,-2.255262 -0.74584,-2.657362 -0.82673,-0.508941 -2.07953,0.821179 -2.70758,1.274611 -0.18273,0.131923 -0.4355,0.406713 -0.67314,0.416476 -0.55268,0.0227 -0.72879,-0.41244 -0.89095,-0.838909 -0.25764,-0.677441 -0.54482,-2.38648 -1.34426,-2.5807525 -0.90235,-0.2192747 -1.77746,1.1445565 -2.29229,1.7283035 -0.18347,0.208013 -0.4181,0.579063 -0.71635,0.61465 -0.545772,0.06512 -0.732308,-0.310908 -0.98689,-0.714938 C 98.894589,10.771401 98.2717,9.0181474 97.215166,9.2953601 m -0.100288,5.2521919 c 2.29785,-0.331252 2.714346,3.197384 0.401152,3.472825 -2.161106,0.257338 -2.549975,-3.163035 -0.401152,-3.472825 m -3.760802,2.923747 c 0.343085,0.04147 0.723979,0.58483 0.950781,0.822012 0.735161,0.768857 1.747067,2.404054 2.910309,2.4551 0.660447,0.02893 1.042395,-0.32388 1.504319,-0.741681 0.596062,-0.539097 1.18666,-1.094944 1.755045,-1.663277 0.26481,-0.264758 0.66481,-0.812683 1.05302,-0.882183 0.35557,-0.06363 0.85927,0.150584 1.20346,0.236681 0.98653,0.246608 1.96459,0.545366 2.90835,0.92651 3.36908,1.360658 6.42405,3.599689 8.69497,6.438291 0.6607,0.825872 1.54604,1.805887 1.92212,2.808064 0.14693,0.391426 -0.36294,1.14559 -0.52656,1.504322 -0.43951,0.963316 -0.86975,1.934856 -1.28629,2.908353 -0.26702,0.623942 -0.48936,1.218749 -0.1053,1.855329 0.29725,0.492764 0.77963,0.692438 1.27972,0.917936 0.71696,0.323179 1.43532,0.644249 2.15619,0.958653 0.30488,0.133032 1.12172,0.346345 1.27416,0.650169 0.30839,0.613861 0.0501,1.572213 0.14492,2.236925 0.16949,1.188863 -0.006,2.379181 -0.20308,3.560224 -0.49292,2.951527 -1.64794,5.787672 -3.30535,8.273763 -0.51793,0.776932 -1.12077,1.442543 -1.71758,2.156193 -0.2618,0.313049 -0.59155,0.822313 -0.95675,1.014062 -0.29515,0.154947 -0.94205,-0.114073 -1.2536,-0.182875 -1.01276,-0.223692 -2.70216,-0.934032 -3.66051,-0.355872 -1.1146,0.672432 -1.17703,2.821554 -1.41401,3.987503 -0.0636,0.312746 -0.0797,0.921947 -0.28778,1.168405 -0.14893,0.176408 -0.49678,0.252576 -0.70512,0.335915 -0.62801,0.251222 -1.26022,0.467342 -1.90548,0.668921 -2.84031,0.886546 -5.882493,1.093139 -8.825346,0.776732 -1.725054,-0.185032 -3.439478,-0.609751 -5.064545,-1.210979 -0.399848,-0.147773 -1.367779,-0.357927 -1.582896,-0.746796 -0.170692,-0.308486 -0.192354,-0.79779 -0.262455,-1.14263 -0.15645,-0.769811 -0.32077,-1.540373 -0.493868,-2.306624 -0.132531,-0.586535 -0.255234,-1.144739 -0.769711,-1.523727 -0.977508,-0.720118 -2.643241,0.01438 -3.710657,0.248865 -0.324985,0.07135 -0.940452,0.324681 -1.253401,0.170088 -0.33115,-0.163569 -0.621083,-0.624393 -0.859167,-0.900988 -0.649915,-0.754818 -1.246329,-1.527888 -1.798666,-2.356769 -2.06759,-3.102862 -3.198738,-6.765783 -3.361605,-10.4801 -0.04694,-1.069873 -0.256838,-2.46508 0.07382,-3.503413 0.108209,-0.339876 0.932628,-0.529069 1.231889,-0.671328 1.035926,-0.492614 3.001019,-0.906504 3.424835,-2.093261 0.485446,-1.359255 -0.836402,-2.86859 -1.491733,-3.961379 -0.266766,-0.444827 -0.659243,-1.054378 -0.582324,-1.604608 0.05466,-0.391173 0.42462,-0.831188 0.638285,-1.153312 0.543109,-0.818651 1.111692,-1.609624 1.750628,-2.356769 2.435845,-2.84828 5.591911,-5.013851 9.097177,-6.320653 0.814089,-0.303522 1.656959,-0.567531 2.507202,-0.749653 0.271631,-0.05817 0.623791,-0.203836 0.902592,-0.170139 m -17.39998,13.073497 c 2.184425,-0.364798 2.86528,3.021328 0.651872,3.420275 -2.13584,0.385006 -2.813037,-3.059388 -0.651872,-3.420275 m 42.271406,0.04829 c 2.23944,-0.290885 2.60448,3.21669 0.35101,3.486364 -2.22263,0.265964 -2.58833,-3.19578 -0.35101,-3.486364 m -34.198218,24.7717 c 2.333701,-0.337169 2.725026,3.205256 0.401152,3.480346 -2.137891,0.252876 -2.526758,-3.173213 -0.401152,-3.480346 m 26.074888,0.100335 c 2.2116,-0.326638 2.89246,3.0988 0.65187,3.429749 -2.19329,0.323982 -2.88057,-3.100605 -0.65187,-3.429749 z"
         id="path1207-6"
         sodipodi:nodetypes="cccccccccscccccccccccccccsscsssccccccccscsccccccccccccccccccccccccccccscccscccccccccccccccccccccccsccccccccccccscccccsccssssscscscccscccccccccscccccccsccsccscsccccccccccccccccccccccccccccccccccc" />
      <g
         id="g15841"
         transform="rotate(45,148.82321,62.013731)">
        <path
           style="fill:#ffffff;fill-opacity:1;stroke:none;stroke-width:0.264583px;stroke-linecap:butt;stroke-linejoin:miter;stroke-opacity:1"
           d="m 66.528409,75.125026 -1.016238,1.06213 -1.34543,8.651502 29.330753,0.770472 2.159381,-1.097965 9.487265,0.364384 3.71539,0.816549 3.96554,4.558549 16.3695,-4.439748 -0.39281,-7.892788 -1.35985,-1.732624 h -5.42828 l -1.54606,1.40513 h -4.40756 l -8.25201,-3.241196 -12.561994,1.15955 z"
           id="path15684" />
        <g
           id="g14478"
           style="fill:#ffffff;fill-opacity:1;stroke:#ffffff;stroke-width:9.8156;stroke-miterlimit:4;stroke-dasharray:none;stroke-opacity:1"
           transform="matrix(0.3205969,0,0,0.29137291,63.572306,48.517592)">
          <path
             id="path14474"
             style="fill:#ffffff;fill-opacity:1;stroke:#ffffff;stroke-width:37.0984;stroke-linecap:butt;stroke-linejoin:miter;stroke-miterlimit:4;stroke-dasharray:none;stroke-opacity:1"
             d="m 459.52539,331.98438 -5.50781,5.50976 -29.32422,0.21484 -4.02148,4.01954 -38.66602,-0.21485 -8.60352,8.60352 H 340.45898 L 330.40234,340.0625 H 32.708984 l -14.685546,14.68555 v 39.80468 h 11.818359 v 12.39844 h 42.007812 l 4.458985,-7.72265 h 16.638672 l 6.246093,6.24609 H 439.41797 l 0.043,4.39258 h -31.51172 v 11.8125 H 259.10156 l -12.54297,-7.73047 v 15.17773 h -9.8789 v -14.84179 h -11.75977 v 14.98828 h -11.08594 v -15.04102 h -11.68554 v 14.98828 h -10.33008 v -15.11132 h -12.30859 v 15.45507 h -9.59766 v -15.47656 h -12.33984 v 15.32031 h -10.24415 v -15.17773 h -12.48046 v 15.24219 h -7.13672 V 414.3125 h -11.57227 v 15.94336 L 105.51562,419.63281 H 18.341797 v 24.00196 L 7.0078125,471.13672 H 36.09375 l 9.994141,9.99414 H 352.78906 v -23.71094 h 25.45703 v 9.46875 h 10.53516 l 7.10352,4.67578 94.20703,0.0508 10.09961,15.39649 30.62304,0.14844 3.07813,-4.95313 27.32226,40.40039 0.0293,22.62305 21.05664,0.12109 16.23242,-9.6582 138.14844,-29.21289 -0.0644,-3.63477 24.64258,0.0918 12.36328,-19.18945 V 439.5176 h 7.11523 v -26.43555 h -8.20312 v -5.30664 h 8.55859 v -13.61328 h -8.7207 V 378.30469 L 752.96094,358.89258 H 688.9668 l -18.22657,18.22656 H 618.7793 l -16.01953,-16.01953 h -48.00782 l -29.11523,-29.11523 z m 16.11719,2.91406 45.85351,0.17773 27.5625,27.56055 -12.46484,12.46484 h -21.17578 z m -13.82813,0.26758 h 9.12696 l 39.72461,39.7246 h -50.60157 l 0.26172,-36.73437 -2.35351,-0.0391 z m -34.45703,6.01171 29.28516,0.0801 -0.0664,33.94922 -31.75976,-31.08008 z m -99.84961,3.79688 11.27735,10.35742 37.89453,0.0781 8.375,-9.29883 35.28515,-0.0234 33.58789,34.02539 h 84.25977 l 13.44531,-13.44531 h 49.07031 l 14.9004,14.90039 h 58.8496 l 17.84571,-18.28125 58.92187,0.3125 17.77149,17.76758 -0.33203,35.4375 7.99414,-0.0312 -0.002,18.55664 h -6.9375 l -0.34375,47.21094 -10.35156,16.17773 H 736.68941 V 484.42584 L 726.41402,474.1524 v -14.72461 l 21.79297,-22.91796 0.2793,-25.36915 -35.39453,-0.0488 -18.63672,18.39648 -34.31641,0.0606 0.25977,-41.79297 h -122.25 v 10.73828 h -70.71875 l 24.27734,24.27734 h 104.94336 l 13.27149,13.27149 h 87.85351 l 17.61719,-17.61719 h 25.13086 v 15.0586 l -23.61719,23.61523 v 25.25586 l 13.42578,13.42383 v 8.40625 l -134.32226,28.27929 -15.36719,8.87305 h -15.13867 v -20.73828 l -28.8086,-41.7832 4.5586,-7.47071 v -21.86718 l -51.14063,-0.30079 -0.16016,17.09375 -39.92382,-0.041 0.0332,-68.11914 H 102.31055 l -8.345706,-9.51953 -71.150391,0.043 c 0.596159,-14.01983 12.949616,-23.16029 19.291016,-23.0293 H 252.67773 v -6.34766 h 26.19141 l 12.05859,12.06055 h 88.86915 v -7.48828 h -86.35157 l -10.30273,-10.30469 h -36.71094 v 6.50781 l -205.001952,0.0332 c -7.961509,-0.0151 -18.418814,8.78029 -18.66211,13.71093 l 0.101563,-14.86328 11.980468,-13.77734 z m 216.30469,47.40234 h 110.16016 v 39.39063 H 612.9375 L 599.70703,418.53516 H 493.40234 l -14.82226,-14.77149 h 65.23242 z m -440.125,31.32813 11.19727,11.27344 h 133.63476 l 11.61914,-8.56836 H 445.1543 v 39.89257 h -48.32227 v -23.72265 l -7.81641,-7.81641 h -89.33984 l -56.36914,16.125 H 87.238281 l -9.953125,-9.95117 -54.167968,0.17969 -0.414063,-17.22266 z m 197.73438,15.4082 h 84.91796 l 4.94336,4.94336 0.10547,8.39258 -43.30664,-0.002 -0.20312,24.79687 -299.333988,0.0742 -9.572266,-9.82422 -26.15039,-0.01 10.292968,-22.51954 51.679688,-0.16211 L 85.242188,455.25 H 243.66406 Z m 192.55859,14.72852 h 43.37891 l -0.17774,15.96875 -8.20312,13.24023 -26.72461,-0.27148 -8.30274,-13.40039 z"
             transform="scale(0.26458333)" />
          <path
             style="fill:#ffffff;fill-opacity:1;stroke:#ffffff;stroke-width:9.8156;stroke-linecap:butt;stroke-linejoin:miter;stroke-miterlimit:4;stroke-dasharray:none;stroke-opacity:1"
             d="m 151.76798,121.43998 v 4.43668 l 4.81227,4.81227 h 5.30103 v -9.35479 z"
             id="path14476" />
        </g>
        <g
           id="g13896"
           style="stroke:#000000;stroke-width:1.63593;stroke-miterlimit:4;stroke-dasharray:none;stroke-opacity:1"
           transform="matrix(0.3205969,0,0,0.29137291,63.572306,48.517592)">
          <path
             id="path998"
             style="fill:#000000;fill-opacity:1;stroke:#000000;stroke-width:6.18306;stroke-linecap:butt;stroke-linejoin:miter;stroke-miterlimit:4;stroke-dasharray:none;stroke-opacity:1"
             d="m 459.52539,331.98438 -5.50781,5.50976 -29.32422,0.21484 -4.02148,4.01954 -38.66602,-0.21485 -8.60352,8.60352 H 340.45898 L 330.40234,340.0625 H 32.708984 l -14.685546,14.68555 v 39.80468 h 11.818359 v 12.39844 h 42.007812 l 4.458985,-7.72265 h 16.638672 l 6.246093,6.24609 H 439.41797 l 0.043,4.39258 h -31.51172 v 11.8125 H 259.10156 l -12.54297,-7.73047 v 15.17773 h -9.8789 v -14.84179 h -11.75977 v 14.98828 h -11.08594 v -15.04102 h -11.68554 v 14.98828 h -10.33008 v -15.11132 h -12.30859 v 15.45507 h -9.59766 v -15.47656 h -12.33984 v 15.32031 h -10.24415 v -15.17773 h -12.48046 v 15.24219 h -7.13672 V 414.3125 h -11.57227 v 15.94336 L 105.51562,419.63281 H 18.341797 v 24.00196 L 7.0078125,471.13672 H 36.09375 l 9.994141,9.99414 H 352.78906 v -23.71094 h 25.45703 v 9.46875 h 10.53516 l 7.10352,4.67578 94.20703,0.0508 10.09961,15.39649 30.62304,0.14844 3.07813,-4.95313 27.32226,40.40039 0.0293,22.62305 21.05664,0.12109 16.23242,-9.6582 138.14844,-29.21289 -0.0644,-3.63477 24.64258,0.0918 12.36328,-19.18945 V 439.5176 h 7.11523 v -26.43555 h -8.20312 v -5.30664 h 8.55859 v -13.61328 h -8.7207 V 378.30469 L 752.96094,358.89258 H 688.9668 l -18.22657,18.22656 H 618.7793 l -16.01953,-16.01953 h -48.00782 l -29.11523,-29.11523 z m 16.11719,2.91406 45.85351,0.17773 27.5625,27.56055 -12.46484,12.46484 h -21.17578 z m -13.82813,0.26758 h 9.12696 l 39.72461,39.7246 h -50.60157 l 0.26172,-36.73437 -2.35351,-0.0391 z m -34.45703,6.01171 29.28516,0.0801 -0.0664,33.94922 -31.75976,-31.08008 z m -99.84961,3.79688 11.27735,10.35742 37.89453,0.0781 8.375,-9.29883 35.28515,-0.0234 33.58789,34.02539 h 84.25977 l 13.44531,-13.44531 h 49.07031 l 14.9004,14.90039 h 58.8496 l 17.84571,-18.28125 58.92187,0.3125 17.77149,17.76758 -0.33203,35.4375 7.99414,-0.0312 -0.002,18.55664 h -6.9375 l -0.34375,47.21094 -10.35156,16.17773 H 736.68941 V 484.42584 L 726.41402,474.1524 v -14.72461 l 21.79297,-22.91796 0.2793,-25.36915 -35.39453,-0.0488 -18.63672,18.39648 -34.31641,0.0606 0.25977,-41.79297 h -122.25 v 10.73828 h -70.71875 l 24.27734,24.27734 h 104.94336 l 13.27149,13.27149 h 87.85351 l 17.61719,-17.61719 h 25.13086 v 15.0586 l -23.61719,23.61523 v 25.25586 l 13.42578,13.42383 v 8.40625 l -134.32226,28.27929 -15.36719,8.87305 h -15.13867 v -20.73828 l -28.8086,-41.7832 4.5586,-7.47071 v -21.86718 l -51.14063,-0.30079 -0.16016,17.09375 -39.92382,-0.041 0.0332,-68.11914 H 102.31055 l -8.345706,-9.51953 -71.150391,0.043 c 0.596159,-14.01983 12.949616,-23.16029 19.291016,-23.0293 H 252.67773 v -6.34766 h 26.19141 l 12.05859,12.06055 h 88.86915 v -7.48828 h -86.35157 l -10.30273,-10.30469 h -36.71094 v 6.50781 l -205.001952,0.0332 c -7.961509,-0.0151 -18.418814,8.78029 -18.66211,13.71093 l 0.101563,-14.86328 11.980468,-13.77734 z m 216.30469,47.40234 h 110.16016 v 39.39063 H 612.9375 L 599.70703,418.53516 H 493.40234 l -14.82226,-14.77149 h 65.23242 z m -440.125,31.32813 11.19727,11.27344 h 133.63476 l 11.61914,-8.56836 H 445.1543 v 39.89257 h -48.32227 v -23.72265 l -7.81641,-7.81641 h -89.33984 l -56.36914,16.125 H 87.238281 l -9.953125,-9.95117 -54.167968,0.17969 -0.414063,-17.22266 z m 197.73438,15.4082 h 84.91796 l 4.94336,4.94336 0.10547,8.39258 -43.30664,-0.002 -0.20312,24.79687 -299.333988,0.0742 -9.572266,-9.82422 -26.15039,-0.01 10.292968,-22.51954 51.679688,-0.16211 L 85.242188,455.25 H 243.66406 Z m 192.55859,14.72852 h 43.37891 l -0.17774,15.96875 -8.20312,13.24023 -26.72461,-0.27148 -8.30274,-13.40039 z"
             transform="scale(0.26458333)" />
          <path
             style="fill:none;stroke:#000000;stroke-width:1.63593;stroke-linecap:butt;stroke-linejoin:miter;stroke-miterlimit:4;stroke-dasharray:none;stroke-opacity:1"
             d="m 151.76798,121.43998 v 4.43668 l 4.81227,4.81227 h 5.30103 v -9.35479 z"
             id="path996" />
        </g>
      </g>
    </g>
  </g>
  <g
     inkscape:groupmode="layer"
     id="layer2"
     inkscape:label="Layer 2"
     style="display:inline" />
</svg>
